# xmcd
#
# Track frame offsets:
#	150
#	22771
#	49243
#	67364
#	79748
#	112925
#	136058
#	146585
#	154800
#	167353
#	189212
#	207973
#	223535
#	242521
#	254802
#
# Disc length: 3736 seconds
#
# Revision: 1
# Processed by: cddbd v1.5.1PL0 Copyright (c) Steve Scherf et al.
# Submitted via: audiograbber 1.83.01
#
DISCID=cd0e960f
DTITLE=Various Artist - Artist Collection Music Sampler
DYEAR=2004
DGENRE=Pop/Funk
TTITLE0=Whitney Houston - I'm Your Baby Tonight
TTITLE1=Santana - (Da Le) Yaleo
TTITLE2=Toni Braxton - He Wasn't Enough
TTITLE3=Sarah McLachlan - Ice Cream
TTITLE4=Kenny G - Havana
TTITLE5=Hall and Oates - I Can't Go For That (No Can Do)
TTITLE6=Dolly Parton - Love Is Like A Butterfly
TTITLE7=Elvis Presley - Ain't That Loving You Baby
TTITLE8=Iggy Pop - I'm Bored
TTITLE9=Kylie Minogue - Where Is The Feeling (Acoustic Version)
TTITLE10=Rick Astley - Don't Say Goodbye
TTITLE11=Luther Vandross - Take You Out
TTITLE12=Busta Rhymes - Everybody Rise Again
TTITLE13=Run-DMC - Rock The House
TTITLE14=TLC - Ain't 2 Proud 2 Beg
EXTD=www.artistcollection.org\n
EXTT0=
EXTT1=
EXTT2=
EXTT3=
EXTT4=
EXTT5=
EXTT6=
EXTT7=
EXTT8=
EXTT9=
EXTT10=
EXTT11=
EXTT12=
EXTT13=
EXTT14=
PLAYORDER=
